<svg width="24" height="25" viewBox="0 0 24 25" fill="none" xmlns="http://www.w3.org/2000/svg">
<circle cx="12" cy="12.5" r="12" fill="#28A5FF"/>
<path d="M18 12.5004C18 12.633 17.9473 12.7601 17.8536 12.8539C17.7598 12.9477 17.6326 13.0004 17.5 13.0004H10.5C10.3674 13.0004 10.2402 12.9477 10.1465 12.8539C10.0527 12.7601 10 12.633 10 12.5004C10 12.3677 10.0527 12.2406 10.1465 12.1468C10.2402 12.053 10.3674 12.0004 10.5 12.0004H17.5C17.6326 12.0004 17.7598 12.053 17.8536 12.1468C17.9473 12.2406 18 12.3677 18 12.5004ZM10.5 9.00036H17.5C17.6326 9.00036 17.7598 8.94768 17.8536 8.85391C17.9473 8.76014 18 8.63297 18 8.50036C18 8.36775 17.9473 8.24057 17.8536 8.1468C17.7598 8.05304 17.6326 8.00036 17.5 8.00036H10.5C10.3674 8.00036 10.2402 8.05304 10.1465 8.1468C10.0527 8.24057 10 8.36775 10 8.50036C10 8.63297 10.0527 8.76014 10.1465 8.85391C10.2402 8.94768 10.3674 9.00036 10.5 9.00036ZM17.5 16.0004H10.5C10.3674 16.0004 10.2402 16.053 10.1465 16.1468C10.0527 16.2406 10 16.3678 10 16.5004C10 16.633 10.0527 16.7601 10.1465 16.8539C10.2402 16.9477 10.3674 17.0004 10.5 17.0004H17.5C17.6326 17.0004 17.7598 16.9477 17.8536 16.8539C17.9473 16.7601 18 16.633 18 16.5004C18 16.3678 17.9473 16.2406 17.8536 16.1468C17.7598 16.053 17.6326 16.0004 17.5 16.0004ZM6.72378 7.94786L7.00003 7.80911V11.0004C7.00003 11.133 7.05271 11.2601 7.14647 11.3539C7.24024 11.4477 7.36742 11.5004 7.50003 11.5004C7.63264 11.5004 7.75981 11.4477 7.85358 11.3539C7.94735 11.2601 8.00003 11.133 8.00003 11.0004V7.00036C8.00009 6.91509 7.97834 6.83122 7.93685 6.75672C7.89536 6.68222 7.83551 6.61957 7.76298 6.57473C7.69045 6.52988 7.60766 6.50433 7.52247 6.5005C7.43729 6.49668 7.35254 6.5147 7.27628 6.55286L6.27628 7.05286C6.15759 7.1122 6.06734 7.21626 6.02538 7.34214C6.00461 7.40447 5.99631 7.47029 6.00097 7.53583C6.00562 7.60136 6.02314 7.66534 6.05253 7.72411C6.08191 7.78287 6.12258 7.83528 6.17222 7.87833C6.22185 7.92138 6.27948 7.95423 6.34181 7.975C6.4677 8.01696 6.60509 8.0072 6.72378 7.94786ZM8.98565 14.2954C8.958 14.0973 8.8906 13.9069 8.78749 13.7356C8.68438 13.5643 8.5477 13.4156 8.38565 13.2985C8.06109 13.0628 7.65797 12.9618 7.26063 13.0165C6.86328 13.0713 6.5025 13.2776 6.25378 13.5922C6.15871 13.7143 6.08342 13.8505 6.03065 13.996C6.0031 14.0586 5.98868 14.1262 5.98829 14.1946C5.9879 14.263 6.00154 14.3307 6.02838 14.3936C6.05522 14.4565 6.09468 14.5133 6.14432 14.5603C6.19396 14.6074 6.25273 14.6437 6.31698 14.6672C6.38124 14.6906 6.44962 14.7006 6.51789 14.6965C6.58617 14.6925 6.65289 14.6745 6.71392 14.6436C6.77496 14.6127 6.82901 14.5697 6.87274 14.5171C6.91647 14.4645 6.94894 14.4035 6.96815 14.3379C6.98565 14.2899 7.01054 14.245 7.0419 14.2047C7.1301 14.0948 7.25728 14.0232 7.39698 14.0047C7.53667 13.9862 7.67812 14.0222 7.7919 14.1054C7.84663 14.1441 7.89292 14.1935 7.92795 14.2507C7.96297 14.3078 7.98601 14.3715 7.99565 14.4379C8.00447 14.5016 8.00033 14.5664 7.98347 14.6285C7.9666 14.6906 7.93737 14.7486 7.89753 14.7991C7.89571 14.8013 7.89404 14.8036 7.89253 14.806L6.0994 17.201C6.04384 17.2753 6.01005 17.3636 6.00184 17.4561C5.99362 17.5485 6.01129 17.6414 6.05287 17.7244C6.09445 17.8074 6.1583 17.8771 6.23727 17.9258C6.31624 17.9746 6.40722 18.0004 6.50003 18.0004H8.50003C8.63264 18.0004 8.75981 17.9477 8.85358 17.8539C8.94735 17.7601 9.00003 17.633 9.00003 17.5004C9.00003 17.3678 8.94735 17.2406 8.85358 17.1468C8.75981 17.053 8.63264 17.0004 8.50003 17.0004H7.50003L8.69253 15.4047C8.81343 15.249 8.9017 15.0705 8.95206 14.8799C9.00243 14.6893 9.01385 14.4905 8.98565 14.2954Z" fill="white"/>
</svg>
